<?xml version="1.0" encoding="UTF-8"?>
<svg xmlns="http://www.w3.org/2000/svg" xmlns:xlink="http://www.w3.org/1999/xlink" width="74px" height="74px"
     viewBox="0 0 74 74" version="1.1">
    <g id="surface1">
        <path d="M 56.734375 69.835938 L 17.265625 69.835938 C 15.46875 69.835938 13.925781 69.195312 12.640625 67.910156 C 11.355469 66.625 10.714844 65.085938 10.714844 63.285156 L 10.714844 10.714844 C 10.714844 8.914062 11.355469 7.375 12.640625 6.089844 C 13.925781 4.804688 15.46875 4.164062 17.265625 4.164062 L 43.550781 4.164062 L 63.285156 23.820312 L 63.285156 63.285156 C 63.285156 65.085938 62.644531 66.625 61.359375 67.910156 C 60.074219 69.195312 58.53125 69.835938 56.734375 69.835938 Z M 40.316406 27.132812 L 40.316406 10.714844 L 17.265625 10.714844 L 17.265625 63.285156 L 56.734375 63.285156 L 56.734375 27.132812 Z M 17.265625 27.132812 L 17.265625 10.714844 L 17.265625 63.285156 Z M 23.820312 40.238281 L 50.179688 40.238281 L 50.179688 33.683594 L 23.820312 33.683594 Z M 23.820312 50.179688 L 50.179688 50.179688 L 50.179688 43.550781 L 23.820312 43.550781 Z M 23.820312 59.972656 L 40.316406 59.972656 L 40.316406 53.417969 L 23.820312 53.417969 Z M 23.820312 59.972656 "/>
    </g>
</svg>
