<?xml version="1.0" encoding="UTF-8"?>
<svg xmlns="http://www.w3.org/2000/svg" xmlns:xlink="http://www.w3.org/1999/xlink" width="74px" height="74px"
     viewBox="0 0 74 74" version="1.1">
    <g id="surface1">
        <path d="M 21.582031 36.230469 L 52.417969 36.230469 C 53.085938 36.230469 53.636719 36.011719 54.074219 35.574219 C 54.511719 35.136719 54.730469 34.585938 54.730469 33.917969 C 54.730469 33.25 54.511719 32.695312 54.074219 32.257812 C 53.636719 31.824219 53.085938 31.605469 52.417969 31.605469 L 21.582031 31.605469 C 20.914062 31.605469 20.363281 31.824219 19.925781 32.257812 C 19.488281 32.695312 19.269531 33.25 19.269531 33.917969 C 19.269531 34.585938 19.488281 35.136719 19.925781 35.574219 C 20.363281 36.011719 20.914062 36.230469 21.582031 36.230469 Z M 21.582031 48.5625 L 40.082031 48.5625 C 40.75 48.5625 41.304688 48.34375 41.742188 47.90625 C 42.175781 47.46875 42.394531 46.917969 42.394531 46.25 C 42.394531 45.582031 42.175781 45.03125 41.742188 44.59375 C 41.304688 44.15625 40.75 43.9375 40.082031 43.9375 L 21.582031 43.9375 C 20.914062 43.9375 20.363281 44.15625 19.925781 44.59375 C 19.488281 45.03125 19.269531 45.582031 19.269531 46.25 C 19.269531 46.917969 19.488281 47.46875 19.925781 47.90625 C 20.363281 48.34375 20.914062 48.5625 21.582031 48.5625 Z M 11.253906 62.746094 C 9.609375 62.746094 8.183594 62.128906 6.976562 60.894531 C 5.769531 59.664062 5.164062 58.25 5.164062 56.65625 L 5.164062 16.882812 C 5.164062 15.238281 5.769531 13.796875 6.976562 12.566406 C 8.183594 11.332031 9.609375 10.714844 11.253906 10.714844 L 29.445312 10.714844 C 30.269531 10.714844 31.066406 10.882812 31.835938 11.214844 C 32.605469 11.550781 33.273438 12 33.839844 12.566406 L 37.078125 15.800781 L 62.898438 15.800781 C 64.542969 15.800781 65.984375 16.417969 67.214844 17.652344 C 68.449219 18.886719 69.066406 20.324219 69.066406 21.96875 L 69.066406 56.65625 C 69.066406 58.25 68.449219 59.664062 67.214844 60.894531 C 65.984375 62.128906 64.542969 62.746094 62.898438 62.746094 Z M 11.253906 16.882812 L 11.253906 56.65625 L 62.898438 56.65625 L 62.898438 21.96875 L 34.535156 21.96875 L 29.445312 16.882812 Z M 11.253906 16.882812 L 11.253906 56.65625 Z M 11.253906 16.882812 "/>
    </g>
</svg>
